<svg width="157" height="157" viewBox="0 0 157 157" fill="none" xmlns="http://www.w3.org/2000/svg">
<g id="solar:chef-hat-bold">
<path id="Vector" d="M45.7917 32.7083C38.2734 32.7034 30.983 35.2887 25.1474 40.029C19.3119 44.7693 15.2875 51.3753 13.7517 58.735C12.2158 66.0947 13.2623 73.7588 16.7149 80.4374C20.1676 87.116 25.8156 92.4013 32.7083 95.4037V112.844H124.292V95.4037C131.561 92.2312 137.431 86.5257 140.808 79.3488C144.185 72.1719 144.84 64.0125 142.651 56.3889C140.461 48.7652 135.577 42.1967 128.906 37.9056C122.235 33.6145 114.232 31.893 106.387 33.0616C104.409 27.235 100.655 22.1744 95.6536 18.5904C90.6519 15.0064 84.6532 13.0791 78.5 13.0791C72.3468 13.0791 66.3481 15.0064 61.3463 18.5904C56.3446 22.1744 52.5911 27.235 50.6129 33.0616C49.0167 32.8251 47.4052 32.707 45.7917 32.7083ZM124.279 122.656H32.7214C32.7868 131.795 33.2513 136.799 36.5417 140.083C40.3752 143.917 46.5374 143.917 58.875 143.917H98.125C110.463 143.917 116.625 143.917 120.458 140.083C123.749 136.799 124.213 131.795 124.279 122.656Z" fill="#BAE2DF"/>
</g>
</svg>
