<svg width="124" height="124" viewBox="0 0 124 124" fill="none" xmlns="http://www.w3.org/2000/svg">
<path id="Vector" d="M12.5176 90.1298L34.645 111.768C42.9839 119.914 47.1564 124 52.3457 124C55.5325 124 58.3348 122.462 61.9556 119.381C64.1751 117.496 65.2849 116.548 65.3345 115.184C65.3841 113.82 64.2867 112.747 62.0982 110.596L13.057 62.4534C11.569 60.9902 10.825 60.2586 10.0066 60.054C9.46308 59.9192 8.89318 59.9342 8.35746 60.0974C7.55148 60.3454 6.82609 61.1266 5.38771 62.689C1.79177 66.5949 0 69.4965 0 72.8196C0 77.8912 4.17253 81.9707 12.5176 90.1298ZM112.082 70.6621C115.852 67.0121 118.85 62.6413 120.897 57.8096C122.945 52.9778 124 47.7838 124 42.5361C124 37.2885 122.945 32.0944 120.897 27.2627C118.85 22.4309 115.852 18.0602 112.082 14.4102C96.1976 -1.12062 70.4432 -1.12062 54.5591 14.4102L51.6699 17.2311C49.066 7.14387 41.3409 -0.122435 32.3263 0.00156309C21.3338 0.168961 12.5982 11.2668 12.809 24.8013L12.6044 46.2344C12.592 47.586 12.5858 48.2618 12.8276 48.8446C13.0694 49.4273 13.5406 49.8985 14.4892 50.8285L68.9739 104.315C71.0198 106.324 72.0428 107.328 73.3138 107.328C74.5848 107.328 75.6077 106.33 77.6537 104.321L112.082 70.6621Z" fill="#BAE2DF"/>
</svg>
