<svg width="29" height="33" viewBox="0 0 29 33" fill="none" xmlns="http://www.w3.org/2000/svg">
<g id="fa6-brands:square-facebook" clip-path="url(#clip0_4056_54)">
<path id="Vector" d="M4.2475 2.0625C1.9723 2.0625 0.122498 3.9123 0.122498 6.1875V26.8125C0.122498 29.0877 1.9723 30.9375 4.2475 30.9375H10.5768V21.5402H7.17367V16.5H10.5768V14.3279C10.5768 8.71406 13.1162 6.11016 18.6334 6.11016C19.6776 6.11016 21.4823 6.31641 22.2235 6.52266V11.0859C21.8368 11.0473 21.16 11.0215 20.3157 11.0215C17.6086 11.0215 16.5645 12.0463 16.5645 14.7082V16.5H21.9528L21.0246 21.5402H16.558V30.9375H24.8725C27.1477 30.9375 28.9975 29.0877 28.9975 26.8125V6.1875C28.9975 3.9123 27.1477 2.0625 24.8725 2.0625H4.2475Z" fill="#FAFAFA"/>
</g>
<defs>
<clipPath id="clip0_4056_54">
<rect width="28.88" height="33" fill="white" transform="translate(0.119995)"/>
</clipPath>
</defs>
</svg>
